<svg width="256" height="26" viewBox="0 0 256 26" fill="none" xmlns="http://www.w3.org/2000/svg">
<path d="M36.5367 5.4612C36.9427 4.7855 38.5298 3.70937 41.6305 4.81042" stroke="black" stroke-width="2"/>
<path d="M26.252 5.34816C18.6811 5.20708 1 5.77137 1 17.3394C2.97502 26.7912 18.2391 27.5812 26.252 5.34816Z" stroke="black" stroke-width="2"/>
<path d="M17.0823 9.86251C18.6341 13.8125 23.4588 21.233 30.3431 19.3144C36.8325 17.9037 40.3593 3.93745 30.3431 5.77139C26.3931 7.74641 28.0577 11.5272 32.4592 15.3643" stroke="black" stroke-width="2"/>
<path d="M62.6159 20H50.6879V3.2H62.6159L63.8639 6.272V8.744L61.8479 11.624L63.8639 14.456V16.928L62.6159 20ZM61.6319 6.704L61.1039 5.456H52.9199V10.52H59.9039L61.6319 8.024V6.704ZM61.6319 15.176L59.9039 12.776H52.9199V17.744H61.1039L61.6319 16.496V15.176ZM67.936 20L65.536 16.784V6.416L67.936 3.2H76.048V5.456H69.04L67.768 7.184V10.52H74.416V12.776H67.768V16.016L69.04 17.744H76.048V20H67.936ZM80.1357 20L77.7357 16.784V6.416L80.1357 3.2H88.2477V5.456H81.2397L79.9677 7.184V10.52H86.6157V12.776H79.9677V16.016L81.2397 17.744H88.2477V20H80.1357ZM100.159 20H93.2954L89.6954 16.856V14.672H91.9274V15.848L94.1114 17.744H99.3434L101.599 15.824V13.976L100.327 12.872H92.3834L89.6954 10.568V6.32L93.3674 3.2H100.231L103.831 6.344V8.768H101.599V7.352L99.3914 5.456H94.1594L91.9274 7.352V9.512L93.1994 10.616H101.119L103.831 12.92V16.88L100.159 20ZM117.702 20H107.934L105.51 16.808V6.392L107.934 3.2H117.702L120.102 6.392V16.808L117.702 20ZM117.87 7.16L116.598 5.456H109.038L107.742 7.16V16.04L109.038 17.744H116.598L117.87 16.04V7.16ZM131.766 20L128.142 5.48H125.526L124.23 7.184V19.976H122.022V6.416L124.398 3.224H129.894L133.494 17.744H133.878V3.2H136.086V20H131.766ZM150.187 20H140.419L137.995 16.808V6.392L140.419 3.2H150.187L152.587 6.392V16.808L150.187 20ZM150.355 7.16L149.083 5.456H141.523L140.227 7.16V16.04L141.523 17.744H149.083L150.355 16.04V7.16ZM164.564 12.776H156.74V20H154.508V3.2H166.1L167.348 6.272V8.744L164.564 12.776ZM165.116 6.704L164.612 5.456H156.74V10.52H163.388L165.116 8.024V6.704ZM177.716 5.456L176.468 7.16V20H174.236V7.16L172.964 5.456H168.788V3.2H174.044L175.34 4.904L176.636 3.2H181.964V5.456H177.716ZM183.641 20V3.2H185.801V20H183.641ZM207.628 20V7.16L206.308 5.456H202.684L199.876 19.184H197.764L194.956 5.456H191.308L190.012 7.16V20H187.732V6.392L190.18 3.2H196.804L198.82 13.016L200.812 3.2H207.46L209.908 6.392V20H207.628ZM211.838 20V3.2H213.998V20H211.838ZM226.152 20H219.288L215.688 16.856V14.672H217.92V15.848L220.104 17.744H225.336L227.592 15.824V13.976L226.32 12.872H218.376L215.688 10.568V6.32L219.36 3.2H226.224L229.824 6.344V8.768H227.592V7.352L225.384 5.456H220.152L217.92 7.352V9.512L219.192 10.616H227.112L229.824 12.92V16.88L226.152 20ZM251.399 20V7.16L250.079 5.456H246.455L243.647 19.184H241.535L238.727 5.456H235.079L233.783 7.16V20H231.503V6.392L233.951 3.2H240.575L242.591 13.016L244.583 3.2H251.231L253.679 6.392V20H251.399Z" fill="#1C191C"/>
</svg>
